# xmcd
#
# Track frame offsets:
#	172
#	19089
#	37323
#	57411
#	78808
#	99247
#	118395
#	140460
#	159325
#	178285
#
# Disc length: 2694 seconds
#
# Revision: 1
# Processed by: cddbd v1.5.1PL0 Copyright (c) Steve Scherf et al.
# Submitted via: CDRider 2.1
#
DISCID=850a840a
DTITLE=Theodis Ealey - Stuck betwenn Rhythm and Blues
DYEAR=1995
DGENRE=Blues
TTITLE0=Bluesman Lover
TTITLE1=Do You Love Me?
TTITLE2=You're On My Mind
TTITLE3=Was It Me?
TTITLE4=Dreamin'
TTITLE5=(Tell Me) Why I Can't Trust You
TTITLE6=I Don't Wanna Talk About It
TTITLE7=Goody Sack
TTITLE8=Lonely Sunday
TTITLE9=Stuck Between Rhythm and Blues (Matt's Song)
EXTD=
EXTT0=
EXTT1=
EXTT2=
EXTT3=
EXTT4=
EXTT5=
EXTT6=
EXTT7=
EXTT8=
EXTT9=
PLAYORDER=
